# xmcd CD database file
#
# Track frame offsets:
#	182
#	15317
#	30862
#	45877
#	61137
#	76947
#	93562
#	109187
#	123767
#	139005
#	154430
#	169055
#	183785
#	198802
#	213495
#	226732
#	239970
#	255240
#	270920
#	286197
#	301920
#	317010
#	329732
#	342920
#
# Disc length: 4755 seconds
#
# Revision: 2
# Processed by: cddbd v1.4PL0 Copyright (c) Steve Scherf et al.
# Submitted via: CDex 1.50beta10
#
DISCID=36129118
DTITLE=Darby and Tarlton - Complete Recordings, Volume 3
DYEAR=1995
DGENRE=Country
TTITLE0=Pork Chops        
TTITLE1=On The Banks Of A Lonely River        
TTITLE2=Faithless Husband        
TTITLE3=Hard Time Blues        
TTITLE4=Rising Sun Blues        
TTITLE5=My Little Blue Heaven        
TTITLE6=Careless Love        
TTITLE7=By The Old Oaken Bucket, Louise        
TTITLE8=Lowe Bonnie        
TTITLE9=After The Sinking Of The Titanic        
TTITLE10=New Birmingham Jail        
TTITLE11=Roy Dixon        
TTITLE12=Roy Dixon (Alt)        
TTITLE13=Moonshine Blues        
TTITLE14=She's Waiting For Me (Fort Benning Blues)        
TTITLE15=Goin' Down That Lonesome 'Frisco Line'        
TTITLE16=Thirteen Years In Kilbie Prison        
TTITLE17=Once I Had A Fortune        
TTITLE18=Dixie Mail        
TTITLE19=The Weaver's Blues        
TTITLE20=Sweetheart Of My Dreams        
TTITLE21=Ooze Up To Me        
TTITLE22=Let's Be Friends Again        
TTITLE23=By The Old Oaken Bucket, Louise  
EXTD=YEAR: 1995
EXTT0=
EXTT1=
EXTT2=
EXTT3=
EXTT4=
EXTT5=
EXTT6=
EXTT7=
EXTT8=
EXTT9=
EXTT10=
EXTT11=
EXTT12=
EXTT13=
EXTT14=
EXTT15=
EXTT16=
EXTT17=
EXTT18=
EXTT19=
EXTT20=
EXTT21=
EXTT22=
EXTT23=
PLAYORDER=
